<svg width="179" height="200" viewBox="0 0 179 200" fill="none" xmlns="http://www.w3.org/2000/svg">
<path d="M89.6025 100V200M89.6025 100L3 150M89.6025 100L3 50M89.6025 100V0M89.6025 100L176.205 50M89.6025 100L176.205 150M82.1711 140.025L89.6025 133.333L97.0339 140.025M67.3082 186.741L89.6025 166.667L111.897 186.741M51.2244 113.576L60.735 116.667L58.6559 126.448M3.3358 124.063L31.8675 133.333L25.6301 162.678M58.6559 73.5519L60.735 83.3333L51.2244 86.4235M25.6301 37.3222L31.8675 66.6667L3.3358 75.9372M97.0339 59.9754L89.6025 66.6667L82.1711 59.9754M111.897 13.2594L89.6025 33.3333L67.3082 13.2594M127.981 86.4235L118.47 83.3333L120.549 73.5519M175.869 75.9372L147.337 66.6667L153.575 37.3222M120.549 126.448L118.47 116.667L127.981 113.576M153.575 162.678L147.337 133.333L175.869 124.063" stroke="white" stroke-width="10"/>
</svg>
